HIERARCHY
ROOT Hips
{
    OFFSET 0.000000 0.000000 0.000000
    CHANNELS 6 Xposition Yposition Zposition Zrotation Xrotation Yrotation
    JOINT Spine
    {
        OFFSET -0.000000 14.517291 0.000000
        CHANNELS 3 Zrotation Xrotation Yrotation
        JOINT Spine1
        {
            OFFSET -0.000000 37.558300 0.000000
            CHANNELS 3 Zrotation Xrotation Yrotation
            JOINT Neck
            {
                OFFSET -0.000000 37.404057 3.400369
                CHANNELS 3 Zrotation Xrotation Yrotation
                JOINT Head
                {
                    OFFSET -0.000000 24.785618 -3.540803
                    CHANNELS 3 Zrotation Xrotation Yrotation
                    End Site
                    {
                        OFFSET -0.000000 35.408028 0.000000
                    }
                }
            }
            JOINT LeftShoulder
            {
                OFFSET 6.992933 33.973492 -0.192664
                CHANNELS 3 Zrotation Xrotation Yrotation
                JOINT LeftArm
                {
                    OFFSET 21.527611 0.000000 0.000000
                    CHANNELS 3 Zrotation Xrotation Yrotation
                    JOINT LeftForeArm
                    {
                        OFFSET 56.353916 0.000000 0.000000
                        CHANNELS 3 Zrotation Xrotation Yrotation
                        JOINT LeftHand
                        {
                            OFFSET 47.774071 0.000000 0.000000
                            CHANNELS 3 Zrotation Xrotation Yrotation
                            End Site
                            {
                                OFFSET 26.556021 0.000000 0.000000
                            }
                        }
                    }
                }
            }
            JOINT RightShoulder
            {
                OFFSET -7.065357 33.973492 -0.192664
                CHANNELS 3 Zrotation Xrotation Yrotation
                JOINT RightArm
                {
                    OFFSET -21.527611 0.000000 0.000000
                    CHANNELS 3 Zrotation Xrotation Yrotation
                    JOINT RightForeArm
                    {
                        OFFSET -56.353916 0.000000 0.000000
                        CHANNELS 3 Zrotation Xrotation Yrotation
                        JOINT RightHand
                        {
                            OFFSET -47.774071 0.000000 0.000000
                            CHANNELS 3 Zrotation Xrotation Yrotation
                            End Site
                            {
                                OFFSET -26.556021 0.000000 0.000000
                            }
                        }
                    }
                }
            }
        }
    }
    JOINT LeftUpLeg
    {
        OFFSET 17.704014 0.000000 0.000000
        CHANNELS 3 Zrotation Xrotation Yrotation
        JOINT LeftLeg
        {
            OFFSET -0.000000 -81.181816 0.000000
            CHANNELS 3 Zrotation Xrotation Yrotation
            JOINT LeftFoot
            {
                OFFSET -0.000000 -62.821102 0.000000
                CHANNELS 3 Zrotation Xrotation Yrotation
                JOINT LeftToeBase
                {
                    OFFSET -0.000000 -11.507608 26.556021
                    CHANNELS 3 Zrotation Xrotation Yrotation
                    End Site
                    {
                        OFFSET -0.000000 0.000000 7.081605
                    }
                }
            }
        }
    }
    JOINT RightUpLeg
    {
        OFFSET -17.704014 0.000000 0.000000
        CHANNELS 3 Zrotation Xrotation Yrotation
        JOINT RightLeg
        {
            OFFSET -0.000000 -81.181816 0.000000
            CHANNELS 3 Zrotation Xrotation Yrotation
            JOINT RightFoot
            {
                OFFSET -0.000000 -62.821102 0.000000
                CHANNELS 3 Zrotation Xrotation Yrotation
                JOINT RightToeBase
                {
                    OFFSET -0.000000 -11.507608 26.556021
                    CHANNELS 3 Zrotation Xrotation Yrotation
                    End Site
                    {
                        OFFSET -0.000000 0.000000 7.081605
                    }
                }
            }
        }
    }
}
MOTION
Frames:    12
Frame Time:    0.008333
-26.856274    152.708984    -29.602343    -0.071193    3.852493    23.261404    0.107291    4.227998    9.555620    -6.016594    -2.853803    3.037486    0.692825    1.505707    -11.169871    9.396591    2.100117    -10.568873    3.455505    3.731416    -9.383611    -36.480209    18.649548    -54.612373    -6.802608    -18.603104    -129.829651    -1.196070    -31.736153    -6.792596    -10.762070    -6.933382    6.798332    32.293243    -33.903179    57.787514    -38.847523    -35.086090    60.965672    2.980278    -12.158283    41.289040    -2.999385    -34.734371    -29.628309    -11.552470    24.825937    -24.420521    -8.385969    -0.681056    32.165104    0.000000    0.000000    0.000000    2.271257    7.473239    -25.246016    2.311042    24.178434    -5.879997    2.495825    -29.467981    -9.384776    0.000000    0.000000    0.000000    
-26.875540    152.702652    -29.595671    -0.067262    3.854430    23.276554    0.107362    4.224154    9.557367    -6.006280    -2.853590    3.038326    0.643960    1.530517    -11.185714    9.454514    2.043553    -10.566888    3.442322    3.733512    -9.381521    -36.489323    18.659716    -54.611031    -6.804667    -18.570372    -129.827911    -1.206501    -31.709528    -6.795110    -10.764837    -6.936760    6.783622    32.305939    -33.907852    57.790710    -38.853691    -35.039825    60.970924    2.901128    -12.126573    41.253529    -2.998529    -34.742138    -29.616501    -11.556712    24.831038    -24.430496    -8.392694    -0.677264    32.151775    0.000000    0.000000    0.000000    2.278807    7.474596    -25.265736    2.304698    24.177820    -5.886698    2.483647    -29.475203    -9.376305    0.000000    0.000000    0.000000    
-26.891508    152.696732    -29.585663    -0.061732    3.856221    23.294916    0.121692    4.213113    9.552785    -6.022596    -2.841923    3.037180    0.633296    1.547355    -11.193668    9.474299    1.983966    -10.566319    3.440981    3.727280    -9.388178    -36.495113    18.679176    -54.593933    -6.795224    -18.567488    -129.833694    -1.220948    -31.690130    -6.784210    -10.752131    -6.944010    6.789430    32.333096    -33.941154    57.791943    -38.812351    -34.988701    61.016098    2.851252    -12.090717    41.223007    -3.001077    -34.745537    -29.625134    -11.573539    24.829559    -24.404924    -8.381872    -0.667916    32.127140    0.000000    0.000000    0.000000    2.288251    7.481914    -25.297541    2.292624    24.165501    -5.890157    2.497236    -29.487324    -9.353651    0.000000    0.000000    0.000000    
-26.908737    152.694153    -29.581631    -0.054668    3.858364    23.323725    0.127740    4.212438    9.545031    -6.029242    -2.841656    3.034515    0.612892    1.566776    -11.201293    9.505255    1.927832    -10.562953    3.433453    3.726876    -9.395110    -36.628250    18.553209    -54.527828    -6.881941    -18.259335    -129.834991    -1.188865    -31.576729    -6.781264    -10.755522    -6.935946    6.779353    32.370693    -33.968590    57.797871    -38.785961    -34.952171    61.055752    2.808151    -12.062009    41.205105    -3.014764    -34.744305    -29.630419    -11.568366    24.823330    -24.416574    -8.404582    -0.665940    32.114979    0.000000    0.000000    0.000000    2.298838    7.487237    -25.315086    2.283914    24.153568    -5.892265    2.510739    -29.493622    -9.365729    0.000000    0.000000    0.000000    
-26.928293    152.693207    -29.570080    -0.049315    3.855247    23.337254    0.130959    4.205107    9.548196    -6.025495    -2.825430    3.036556    0.594250    1.569447    -11.210312    9.523906    1.878232    -10.563416    3.417777    3.734176    -9.393549    -36.491268    18.696833    -54.574638    -6.800027    -18.516655    -129.830368    -1.240823    -31.651398    -6.778783    -10.762852    -6.936903    6.770891    32.403973    -33.989971    57.801010    -38.739143    -34.930889    61.109997    2.789327    -12.049565    41.179661    -3.013610    -34.740314    -29.610840    -11.561783    24.830765    -24.448462    -8.409149    -0.672161    32.121906    0.000000    0.000000    0.000000    2.307208    7.496908    -25.327124    2.283782    24.149248    -5.859903    2.491817    -29.490175    -9.399332    0.000000    0.000000    0.000000    
-26.944033    152.693634    -29.562210    -0.040876    3.863788    23.355955    0.136912    4.186293    9.550160    -6.042343    -2.798476    3.038276    0.597832    1.579817    -11.221469    9.532405    1.802571    -10.568193    3.421743    3.730001    -9.393719    -36.629551    18.577948    -54.520462    -6.882436    -18.219172    -129.828522    -1.191031    -31.539278    -6.770028    -10.761451    -6.938500    6.752074    32.427845    -33.999012    57.802509    -38.740807    -34.922218    61.121422    2.790315    -12.032957    41.150402    -3.029527    -34.746132    -29.629240    -11.565042    24.830282    -24.447884    -8.401046    -0.667235    32.122753    0.000000    0.000000    0.000000    2.307998    7.495090    -25.367252    2.267902    24.145256    -5.873745    2.530928    -29.483297    -9.358946    0.000000    0.000000    0.000000    
-26.963945    152.693283    -29.557280    -0.038713    3.867280    23.373117    0.144746    4.182421    9.551286    -6.059067    -2.793370    3.038596    0.617900    1.588478    -11.231132    9.519242    1.740258    -10.577467    3.435401    3.738718    -9.389997    -36.648975    18.588066    -54.517544    -6.899899    -18.186453    -129.830917    -1.202094    -31.542377    -6.769016    -10.751336    -6.937715    6.745999    32.452084    -34.010460    57.800098    -38.709160    -34.930195    61.149166    2.832239    -12.034842    41.166698    -3.036286    -34.748802    -29.626745    -11.552475    24.827139    -24.471373    -8.422976    -0.672110    32.129951    0.000000    0.000000    0.000000    2.315686    7.485176    -25.387602    2.257095    24.158546    -5.880700    2.539012    -29.492050    -9.351347    0.000000    0.000000    0.000000    
-26.983570    152.696304    -29.551565    -0.036699    3.876527    23.392443    0.147808    4.170263    9.546826    -6.065129    -2.781133    3.037652    0.603991    1.603649    -11.237230    9.549490    1.664843    -10.571819    3.430725    3.751469    -9.375000    -36.630905    18.607563    -54.528404    -6.892210    -18.197447    -129.834732    -1.168074    -31.541033    -6.753395    -10.757364    -6.941664    6.741418    32.469578    -34.019173    57.784286    -38.677826    -34.941078    61.188412    2.829765    -12.051652    41.149288    -3.042087    -34.753170    -29.647411    -11.557007    24.810501    -24.452496    -8.434554    -0.655987    32.123173    0.000000    0.000000    0.000000    2.319688    7.472613    -25.388874    2.264131    24.164091    -5.889101    2.521954    -29.487280    -9.386902    0.000000    0.000000    0.000000    
-27.003946    152.700287    -29.550537    -0.032287    3.883761    23.403660    0.145539    4.170643    9.554852    -6.070158    -2.781317    3.040163    0.615424    1.610672    -11.250724    9.532913    1.596841    -10.583915    3.428276    3.753869    -9.378723    -36.637619    18.618109    -54.518269    -6.900246    -18.183544    -129.838837    -1.168429    -31.544695    -6.745247    -10.753228    -6.928428    6.724700    32.470737    -34.022285    57.781960    -38.664265    -34.957413    61.200623    2.828906    -12.075276    41.129013    -3.049005    -34.759895    -29.663979    -11.552219    24.807339    -24.472124    -8.440069    -0.643583    32.133476    0.000000    0.000000    0.000000    2.320105    7.459635    -25.398302    2.263017    24.175535    -5.878172    2.509336    -29.484016    -9.407970    0.000000    0.000000    0.000000    
-27.022207    152.703171    -29.547722    -0.027101    3.892581    23.416672    0.142998    4.167441    9.556260    -6.076050    -2.780419    3.040504    0.605843    1.620790    -11.262007    9.556398    1.541647    -10.586787    3.428450    3.762518    -9.367493    -36.637283    18.630259    -54.519440    -6.904071    -18.181585    -129.844315    -1.150788    -31.552584    -6.742887    -10.753305    -6.918773    6.709397    32.469036    -34.008759    57.782288    -38.697159    -34.975334    61.168678    2.830968    -12.089372    41.114006    -3.063148    -34.768261    -29.672825    -11.546957    24.809387    -24.475178    -8.443781    -0.633334    32.142948    0.000000    0.000000    0.000000    2.314974    7.448123    -25.397478    2.271100    24.199730    -5.884451    2.547523    -29.500345    -9.383906    0.000000    0.000000    0.000000    
-27.044931    152.704590    -29.545090    -0.026956    3.897439    23.425877    0.141795    4.166379    9.559973    -6.072997    -2.779904    3.041821    0.590623    1.634998    -11.275407    9.569561    1.480880    -10.591935    3.419816    3.765640    -9.359426    -36.635235    18.632397    -54.514671    -6.909485    -18.177835    -129.853653    -1.139228    -31.562679    -6.732079    -10.756988    -6.919034    6.703524    32.451679    -33.990185    57.768013    -38.723526    -34.993538    61.134308    2.817883    -12.114692    41.110493    -3.061162    -34.773285    -29.672462    -11.538520    24.802526    -24.480635    -8.454877    -0.622909    32.127586    0.000000    0.000000    0.000000    2.318999    7.432229    -25.413517    2.266802    24.204546    -5.884963    2.535000    -29.480556    -9.400970    0.000000    0.000000    0.000000    
-27.064445    152.702667    -29.543447    -0.023292    3.901073    23.439344    0.138948    4.167822    9.557501    -6.074267    -2.780184    3.040951    0.616493    1.650924    -11.289954    9.531610    1.409351    -10.609497    3.418890    3.773832    -9.342439    -36.635117    18.624788    -54.523216    -6.912236    -18.167786    -129.846329    -1.128399    -31.557068    -6.740472    -10.751738    -6.923154    6.707921    32.444805    -33.992672    57.757725    -38.725269    -34.992294    61.116894    2.818233    -12.120347    41.114368    -3.065340    -34.779827    -29.692348    -11.547127    24.801773    -24.469717    -8.471147    -0.626414    32.132145    0.000000    0.000000    0.000000    2.321470    7.424891    -25.427691    2.272144    24.215071    -5.905574    2.526390    -29.485464    -9.400366    0.000000    0.000000    0.000000    
